<?xml version="1.0" encoding="UTF-8" standalone="no"?>
<!-- Created with Inkscape (http://www.inkscape.org/) -->

<svg
   width="93.533188mm"
   height="97.760139mm"
   viewBox="0 0 93.533188 97.760134"
   version="1.1"
   id="svg62366"
   inkscape:version="1.1.1 (3bf5ae0d25, 2021-09-20)"
   sodipodi:docname="logo_colorized_ink_svg.svg"
   xmlns:inkscape="http://www.inkscape.org/namespaces/inkscape"
   xmlns:sodipodi="http://sodipodi.sourceforge.net/DTD/sodipodi-0.dtd"
   xmlns:xlink="http://www.w3.org/1999/xlink"
   xmlns="http://www.w3.org/2000/svg"
   xmlns:svg="http://www.w3.org/2000/svg">
  <sodipodi:namedview
     id="namedview62368"
     pagecolor="#ffffff"
     bordercolor="#cccccc"
     borderopacity="1"
     inkscape:pageshadow="0"
     inkscape:pageopacity="1"
     inkscape:pagecheckerboard="0"
     inkscape:document-units="mm"
     showgrid="false"
     fit-margin-top="0"
     fit-margin-left="0"
     fit-margin-right="0"
     fit-margin-bottom="0"
     inkscape:zoom="1.0482005"
     inkscape:cx="265.69345"
     inkscape:cy="187.46414"
     inkscape:window-width="1920"
     inkscape:window-height="1017"
     inkscape:window-x="-8"
     inkscape:window-y="-8"
     inkscape:window-maximized="1"
     inkscape:current-layer="layer1" />
  <defs
     id="defs62363">
    <clipPath
       clipPathUnits="userSpaceOnUse"
       id="clipPath47260">
      <path
         style="fill:none;stroke:#000000;stroke-width:0.273309px;stroke-linecap:butt;stroke-linejoin:miter;stroke-opacity:1"
         d="m 324.35454,101.35439 38.16498,-8.112358 10.50919,-26.733916 1.84372,-27.655778 c 0,0 -4.6093,-14.012254 -9.03423,-17.884067 C 361.41327,17.096472 344.08234,6.5872745 344.08234,6.5872745 l -5.89989,-0.1843769 0.56162,1.1958798 -0.39111,5.6711176 -25.2919,-0.847405 0.58669,-6.8444554 -25.68301,5.9970414 -11.73335,17.208911 -7.5615,33.63561 15.12298,31.028196 25.2919,9.125947 z"
         id="path47262" />
    </clipPath>
    <linearGradient
       inkscape:collect="always"
       xlink:href="#linearGradient60730"
       id="linearGradient60732"
       x1="216.49425"
       y1="210.23689"
       x2="216.72591"
       y2="296.59811"
       gradientUnits="userSpaceOnUse" />
    <linearGradient
       inkscape:collect="always"
       id="linearGradient60730">
      <stop
         style="stop-color:#2a7fff;stop-opacity:1;"
         offset="0"
         id="stop60726" />
      <stop
         style="stop-color:#2a7fff;stop-opacity:0;"
         offset="1"
         id="stop60728" />
    </linearGradient>
    <clipPath
       clipPathUnits="userSpaceOnUse"
       id="clipPath1188-8-5-2-6-5">
      <rect
         style="opacity:0.79;fill:#69c18e;stroke:#69c18e;stroke-width:0.277921"
         id="rect1190-0-4-0-1-4"
         width="95.991013"
         height="103.86526"
         x="166.94267"
         y="191.05421" />
    </clipPath>
    <clipPath
       clipPathUnits="userSpaceOnUse"
       id="clipPath1188-8-5-3-63-74">
      <rect
         style="opacity:0.79;fill:#69c18e;stroke:#69c18e;stroke-width:0.277921"
         id="rect1190-0-4-7-1-2"
         width="95.991013"
         height="103.86526"
         x="166.94267"
         y="191.05421" />
    </clipPath>
    <linearGradient
       inkscape:collect="always"
       xlink:href="#linearGradient60730"
       id="linearGradient63990"
       gradientUnits="userSpaceOnUse"
       x1="216.49425"
       y1="210.23689"
       x2="216.72591"
       y2="296.59811" />
    <clipPath
       clipPathUnits="userSpaceOnUse"
       id="clipPath64184">
      <rect
         style="fill:#ff22ff;fill-opacity:0.617716;stroke:#006400;stroke-width:0.36005"
         id="rect64186"
         width="94.240105"
         height="98.04287"
         x="51.200268"
         y="119.47105" />
    </clipPath>
  </defs>
  <g
     inkscape:label="Layer 1"
     inkscape:groupmode="layer"
     id="layer1"
     transform="translate(56.248052,-114.83042)">
    <g
       id="g63870"
       transform="translate(-107.44832,-4.640625)"
       clip-path="url(#clipPath64184)">
      <ellipse
         style="opacity:0.78;fill:#ffffff;fill-opacity:0;stroke:#006400;stroke-width:3.24562;stroke-miterlimit:4;stroke-dasharray:none;stroke-opacity:1"
         id="path31377-1-7-2"
         cx="323.50464"
         cy="52.176182"
         rx="46.228374"
         ry="44.209038"
         clip-path="url(#clipPath47260)"
         transform="matrix(0.96807403,0,0,0.96807403,-214.76647,122.35216)" />
      <path
         style="opacity:0.54;fill:url(#linearGradient63990);fill-opacity:1;stroke-width:0.353;stroke-miterlimit:4;stroke-dasharray:none"
         d="m 245.29054,239.96849 c -1.24861,-3.76877 -4.9021,-12.42991 -11.78341,-14.46648 -1.2526,-0.27267 -7.7459,-3.36827 -7.02077,-4.09284 -0.25099,-4.21183 5.55317,-1.95623 3.79105,-10.08336 21.38354,7.40398 32.25271,29.67539 22.09851,51.57942 -0.85537,-8.67843 -3.78121,-17.52309 -7.08538,-22.93674 z M 205.93549,210.0718 c 0.76447,5.95431 -0.17402,7.30089 -1.00258,10.47192 -2.88287,2.26011 -3.51799,1.11756 -7.32289,4.84837 -3.25146,0.13387 -9.97967,3.11938 -12.61898,13.13018 -0.46121,4.76302 -5.34259,7.72729 -5.76224,23.82946 -7.23531,-12.87414 -5.20814,-43.53572 26.70669,-52.27993 z"
         id="path976-3-0-6-2-1"
         clip-path="url(#clipPath1188-8-5-2-6-5)"
         sodipodi:nodetypes="ccccccccsccc"
         transform="translate(-117.49317,-76.12741)" />
      <path
         style="fill:#006400;fill-opacity:1;stroke-width:0.352778"
         d="m 200.9346,281.87082 c 0.74398,-4.35926 1.68409,-8.10812 1.64493,-11.64973 -0.0548,-4.95694 -3.83041,-12.88428 -4.51364,-12.88428 -1.81883,1.3221 -2.66656,3.78345 -3.4198,7.51021 -0.41462,-4.70715 -0.33889,-6.86243 2.59009,-9.40799 -0.39462,-2.78048 -4.08271,-6.44961 -4.12207,-9.04571 0.69415,-5.18364 0.22193,-4.55104 1.44126,-0.1766 1.01554,3.64329 2.5825,6.66183 4.85759,9.92574 5.31001,8.92316 4.68006,12.04634 3.72161,17.9671 z m 31.03027,-26.62856 c -1.37482,-2.61729 -3.18311,-5.97303 -1.82441,-9.13492 -0.0179,5.08417 6.14416,10.11681 6.6964,12.05508 l -3.36405,-1.13959 c -6.17578,13.30627 -0.21702,19.15697 0.025,26.37089 -8.06625,-16.54091 -3.89653,-22.71799 -1.53299,-28.15146 z m -19.61472,22.59519 c 0.31067,-1.87749 0.4034,-2.02847 1.24586,-2.02847 0.89299,0 0.87511,0.8434 -0.0496,2.33961 -1.01904,1.64884 -1.49989,1.52377 -1.19627,-0.31114 z m 29.33603,-35.19413 c -4.11288,-12.29251 -6.72759,-14.56046 -15.89099,-13.55704 0.47071,-0.89271 0.98354,-1.1599 1.87374,-1.80209 -3.22641,-2.26736 -11.01462,-4.09029 -10.18363,-9.74124 3.30317,5.79025 8.03799,5.70027 12.28763,9.52114 6.79182,0.47219 11.19537,8.32621 13.74134,14.55042 10.63855,17.65813 5.97497,33.07575 0.9419,36.13361 5.85959,-7.65148 4.50914,-24.47824 -2.76999,-35.1048 z m -59.34043,25.02615 c 0,0 -3.1263,-5.43864 1.83036,-21.7322 2.97862,-3.36265 2.44978,-16.45605 14.05324,-18.96721 0.77612,-0.13883 1.80799,-0.61631 2.29306,-1.06109 0.7798,-0.71502 3.40901,-2.54956 5.08178,-3.54582 1.30998,-0.7802 2.61744,-3.54679 1.76209,-10.23056 -0.0474,-3.92202 -0.46453,-5.64795 1.13384,-9.02108 2.39624,-5.05693 7.20908,-7.53355 13.44463,-5.82568 3.24889,0.88984 7.94312,4.55774 7.34422,10.02642 l -0.42583,3.88826 c -0.26172,2.38979 1.31101,3.46351 -0.0539,4.80215 -1.97301,0.92321 -2.18398,1.08057 -4.35093,4.80136 -0.67332,0.36035 -0.72894,0.33176 -0.49009,-0.25192 0.14819,-0.36212 0.46686,-1.38009 0.70815,-2.26217 0.67286,-2.45975 1.15497,-3.15873 2.17867,-3.15873 0.82821,0 0.88135,-0.085 0.60627,-0.97013 -0.16582,-0.53358 -0.3021,-2.98011 -0.30282,-5.43674 -0.001,-4.40406 -0.0163,-4.48794 -1.07277,-5.992 -3.36103,-4.7851 -10.07383,-5.16243 -14.37279,-0.80792 -2.08381,2.11075 -2.68505,4.42993 -2.2967,11.66903 -0.40263,6.69689 -0.0505,8.31135 -4.26138,11.65704 -2.97999,1.48325 -5.77635,4.42139 -6.75032,7.09259 -0.85793,4.85975 -1.21112,2.11954 -1.34605,-0.10214 0.0803,-1.26118 1.10278,-3.18549 1.10278,-3.18549 -1.94864,0.13625 -3.39965,1.465 -4.90196,3.05523 -3.52916,3.20405 -4.47801,8.54655 -7.83922,16.69474 -2.31023,8.28444 -2.45674,10.94676 -1.00509,21.55954 -2.06924,-2.69548 0,0 -2.06924,-2.69548 z m 30.90467,6.93853 c -0.23419,-0.28217 -0.31224,-0.88957 -0.18134,-1.41111 0.1914,-0.76263 0.43166,-0.91569 1.43737,-0.91569 1.46264,0 1.84481,0.71422 1.03967,1.943 -0.63797,0.97367 -1.66382,1.14517 -2.2957,0.3838 z m 0.76574,-3.28132 c -0.63918,-0.12311 -0.79375,-0.38854 -0.79375,-1.36307 v -1.21018 h 1.76389 c 1.69669,0 1.76389,0.0376 1.76389,0.98777 0,1.61819 -0.63932,1.98894 -2.73403,1.58548 z m -1.01105,-4.14015 c -0.50637,-1.3196 -0.007,-1.78164 2.04373,-1.88942 1.70615,-0.0897 2.02695,-0.007 2.20943,0.56766 0.43435,1.36851 -0.10671,1.83032 -2.14439,1.83032 -1.34109,0 -1.972,-0.15215 -2.10877,-0.50856 z m -0.63719,-3.91738 c -0.32821,-1.30768 -0.009,-1.57128 1.90479,-1.57128 2.35254,0 2.83026,0.24455 2.83026,1.44886 0,1.01915 -0.003,1.02058 -2.25481,1.02058 -2.12179,0 -2.26811,-0.053 -2.48024,-0.89816 z m -7.43504,-42.72543 c -230.906378,-131.436058 -115.453189,-65.71803 0,0 z m 6.84762,40.07828 c -0.17125,-0.10666 -0.41296,-0.70197 -0.53715,-1.32292 l -0.2258,-1.12899 h 2.31715 c 1.99456,0 2.3936,0.10916 2.86632,0.78405 0.9574,1.36689 0.70159,1.61745 -1.78,1.74349 -1.28105,0.0651 -2.46928,0.031 -2.64052,-0.0756 z m -1.50202,-3.8026 c -0.32112,-0.35483 -0.58385,-0.98983 -0.58385,-1.41111 0,-0.71822 0.16542,-0.76598 2.6534,-0.76598 2.46943,0 2.68055,0.0596 3.04499,0.85945 0.70172,1.54012 0.21049,1.96278 -2.28125,1.96278 -1.73121,0 -2.38396,-0.14864 -2.83329,-0.64514 z m -1.46654,-3.39206 c -0.26245,-0.20482 -0.5284,-0.76927 -0.591,-1.25434 -0.11138,-0.86315 -0.0586,-0.88417 2.47646,-0.98625 1.49045,-0.06 2.78451,0.0569 3.04774,0.27535 0.48192,0.39996 0.94416,2.1146 0.57488,2.13243 -3.71614,0.17942 -5.11847,0.13685 -5.50808,-0.16719 z m -1.51003,-3.4592 c -0.19935,-0.24254 -0.41723,-0.75847 -0.48417,-1.14653 -0.11242,-0.65167 0.0998,-0.71336 2.77844,-0.80785 2.83067,-0.0999 2.90542,-0.0813 3.12002,0.7737 0.12092,0.4818 0.11617,1.04377 -0.0105,1.24882 -0.33095,0.53549 -4.95552,0.47717 -5.40373,-0.0681 z m -1.50259,-3.81987 c -0.73167,-1.36715 -0.20847,-1.73633 2.46072,-1.73633 2.13799,0 2.52058,0.0981 2.86046,0.73312 0.73167,1.36714 0.20847,1.73632 -2.46072,1.73632 -2.13798,0 -2.52058,-0.0981 -2.86046,-0.73312 z m -0.9081,-3.30322 c -0.10733,-0.27971 -0.13986,-0.79565 -0.0723,-1.14653 0.1034,-0.53688 0.48378,-0.63797 2.40067,-0.63797 2.06335,0 2.31828,0.0812 2.70768,0.86225 0.23643,0.47424 0.35082,0.99017 0.25419,1.14653 -0.0966,0.15635 -1.28256,0.28428 -2.63539,0.28428 -1.81667,0 -2.51072,-0.13296 -2.65486,-0.50856 z m 1.36383,-2.95131 c -1.39392,-0.10085 -1.49931,-0.18032 -1.49931,-1.13054 0,-0.87803 0.16159,-1.04947 1.14653,-1.21653 0.63059,-0.10695 1.46403,-0.12629 1.85209,-0.043 0.38805,0.0833 0.90399,0.16364 1.14652,0.17848 0.24458,0.015 0.44098,0.48002 0.44098,1.0442 0,1.14727 -0.54034,1.35161 -3.08681,1.16737 z m -1.08205,-4.37146 c 0.11175,-1.16318 0.11468,-1.16484 2.05219,-1.16484 1.92068,0 1.94028,0.0107 1.94028,1.05834 0,1.04243 -0.0308,1.05993 -2.05219,1.16484 l -2.05219,0.1065 z m 1.02175,-2.72765 c -0.42673,-0.27009 -0.41241,-0.45289 0.0963,-1.22932 0.47818,-0.7298 0.88016,-0.91205 2.01165,-0.91205 1.57647,0 2.0338,0.5645 1.40666,1.73632 -0.29021,0.54226 -0.73354,0.73171 -1.70286,0.72772 -0.72078,-0.003 -1.53608,-0.14817 -1.81178,-0.32267 z m 1.74721,-3.64049 c 0.0325,-1.27595 2.61786,-2.5895 3.02231,-1.53553 0.3835,0.99938 -0.51191,1.9765 -1.81121,1.9765 -0.74865,0 -1.21797,-0.17088 -1.2111,-0.44097 z m 2.22494,-3.28425 c -0.2209,-0.57567 1.544,-2.72847 2.00385,-2.44426 0.32096,0.19836 0.008,1.9742 -0.44999,2.55351 -0.48206,0.60975 -1.30002,0.55223 -1.55386,-0.10925 z"
         id="path976-3-0-9-2-5"
         clip-path="url(#clipPath1188-8-5-3-63-74)"
         sodipodi:nodetypes="csccccscccscccccscssscccccccccccssccsssccsssscccscccscccccsssssscssssscssscssscccscsccccssssssscccsscccsccccccsccccsscscccssccsccscsscsccssccccsscscssc"
         transform="translate(-117.48382,-77.01617)" />
      <path
         style="fill:#006400;fill-opacity:1;stroke-width:0.352778"
         d="m 200.9346,281.87082 c 0.74398,-4.35926 1.68409,-8.10812 1.64493,-11.64973 -0.0548,-4.95694 -3.83041,-12.88428 -4.51364,-12.88428 -1.81883,1.3221 -2.66656,3.78345 -3.4198,7.51021 -0.41462,-4.70715 -0.33889,-6.86243 2.59009,-9.40799 -0.39462,-2.78048 -4.08271,-6.44961 -4.12207,-9.04571 0.69415,-5.18364 0.22193,-4.55104 1.44126,-0.1766 1.01554,3.64329 2.5825,6.66183 4.85759,9.92574 5.31001,8.92316 4.68006,12.04634 3.72161,17.9671 z m 31.03027,-26.62856 c -1.37482,-2.61729 -3.18311,-5.97303 -1.82441,-9.13492 -0.0179,5.08417 6.14416,10.11681 6.6964,12.05508 l -3.36405,-1.13959 c -6.17578,13.30627 -0.21702,19.15697 0.025,26.37089 -8.06625,-16.54091 -3.89653,-22.71799 -1.53299,-28.15146 z m -19.61472,22.59519 c 0.31067,-1.87749 0.4034,-2.02847 1.24586,-2.02847 0.89299,0 0.87511,0.8434 -0.0496,2.33961 -1.01904,1.64884 -1.49989,1.52377 -1.19627,-0.31114 z m 29.33603,-35.19413 c -4.11288,-12.29251 -6.72759,-14.56046 -15.89099,-13.55704 0.47071,-0.89271 0.98354,-1.1599 1.87374,-1.80209 -3.22641,-2.26736 -11.01462,-4.09029 -10.18363,-9.74124 3.30317,5.79025 8.03799,5.70027 12.28763,9.52114 6.79182,0.47219 11.19537,8.32621 13.74134,14.55042 10.63855,17.65813 5.97497,33.07575 0.9419,36.13361 5.85959,-7.65148 4.50914,-24.47824 -2.76999,-35.1048 z m -59.34043,25.02615 c 0,0 -3.1263,-5.43864 1.83036,-21.7322 2.97862,-3.36265 2.44978,-16.45605 14.05324,-18.96721 0.77612,-0.13883 1.80799,-0.61631 2.29306,-1.06109 0.7798,-0.71502 3.40901,-2.54956 5.08178,-3.54582 1.30998,-0.7802 2.61744,-3.54679 1.76209,-10.23056 -0.0474,-3.92202 -0.46453,-5.64795 1.13384,-9.02108 2.39624,-5.05693 7.20908,-7.53355 13.44463,-5.82568 3.24889,0.88984 7.94312,4.55774 7.34422,10.02642 l -0.42583,3.88826 c -0.26172,2.38979 1.31101,3.46351 -0.0539,4.80215 -1.97301,0.92321 -2.18398,1.08057 -4.35093,4.80136 -0.67332,0.36035 -0.72894,0.33176 -0.49009,-0.25192 0.14819,-0.36212 0.46686,-1.38009 0.70815,-2.26217 0.67286,-2.45975 1.15497,-3.15873 2.17867,-3.15873 0.82821,0 0.88135,-0.085 0.60627,-0.97013 -0.16582,-0.53358 -0.3021,-2.98011 -0.30282,-5.43674 -0.001,-4.40406 -0.0163,-4.48794 -1.07277,-5.992 -3.36103,-4.7851 -10.07383,-5.16243 -14.37279,-0.80792 -2.08381,2.11075 -2.68505,4.42993 -2.2967,11.66903 -0.40263,6.69689 -0.0505,8.31135 -4.26138,11.65704 -2.97999,1.48325 -5.77635,4.42139 -6.75032,7.09259 -0.85793,4.85975 -1.21112,2.11954 -1.34605,-0.10214 0.0803,-1.26118 1.10278,-3.18549 1.10278,-3.18549 -1.94864,0.13625 -3.39965,1.465 -4.90196,3.05523 -3.52916,3.20405 -4.47801,8.54655 -7.83922,16.69474 -2.31023,8.28444 -2.45674,10.94676 -1.00509,21.55954 -2.06924,-2.69548 0,0 -2.06924,-2.69548 z m 30.90467,6.93853 c -0.23419,-0.28217 -0.31224,-0.88957 -0.18134,-1.41111 0.1914,-0.76263 0.43166,-0.91569 1.43737,-0.91569 1.46264,0 1.84481,0.71422 1.03967,1.943 -0.63797,0.97367 -1.66382,1.14517 -2.2957,0.3838 z m 0.76574,-3.28132 c -0.63918,-0.12311 -0.79375,-0.38854 -0.79375,-1.36307 v -1.21018 h 1.76389 c 1.69669,0 1.76389,0.0376 1.76389,0.98777 0,1.61819 -0.63932,1.98894 -2.73403,1.58548 z m -1.01105,-4.14015 c -0.50637,-1.3196 -0.007,-1.78164 2.04373,-1.88942 1.70615,-0.0897 2.02695,-0.007 2.20943,0.56766 0.43435,1.36851 -0.10671,1.83032 -2.14439,1.83032 -1.34109,0 -1.972,-0.15215 -2.10877,-0.50856 z m -0.63719,-3.91738 c -0.32821,-1.30768 -0.009,-1.57128 1.90479,-1.57128 2.35254,0 2.83026,0.24455 2.83026,1.44886 0,1.01915 -0.003,1.02058 -2.25481,1.02058 -2.12179,0 -2.26811,-0.053 -2.48024,-0.89816 z m -7.43504,-42.72543 c -230.906378,-131.436058 -115.453189,-65.71803 0,0 z m 6.84762,40.07828 c -0.17125,-0.10666 -0.41296,-0.70197 -0.53715,-1.32292 l -0.2258,-1.12899 h 2.31715 c 1.99456,0 2.3936,0.10916 2.86632,0.78405 0.9574,1.36689 0.70159,1.61745 -1.78,1.74349 -1.28105,0.0651 -2.46928,0.031 -2.64052,-0.0756 z m -1.50202,-3.8026 c -0.32112,-0.35483 -0.58385,-0.98983 -0.58385,-1.41111 0,-0.71822 0.16542,-0.76598 2.6534,-0.76598 2.46943,0 2.68055,0.0596 3.04499,0.85945 0.70172,1.54012 0.21049,1.96278 -2.28125,1.96278 -1.73121,0 -2.38396,-0.14864 -2.83329,-0.64514 z m -1.46654,-3.39206 c -0.26245,-0.20482 -0.5284,-0.76927 -0.591,-1.25434 -0.11138,-0.86315 -0.0586,-0.88417 2.47646,-0.98625 1.49045,-0.06 2.78451,0.0569 3.04774,0.27535 0.48192,0.39996 0.94416,2.1146 0.57488,2.13243 -3.71614,0.17942 -5.11847,0.13685 -5.50808,-0.16719 z m -1.51003,-3.4592 c -0.19935,-0.24254 -0.41723,-0.75847 -0.48417,-1.14653 -0.11242,-0.65167 0.0998,-0.71336 2.77844,-0.80785 2.83067,-0.0999 2.90542,-0.0813 3.12002,0.7737 0.12092,0.4818 0.11617,1.04377 -0.0105,1.24882 -0.33095,0.53549 -4.95552,0.47717 -5.40373,-0.0681 z m -1.50259,-3.81987 c -0.73167,-1.36715 -0.20847,-1.73633 2.46072,-1.73633 2.13799,0 2.52058,0.0981 2.86046,0.73312 0.73167,1.36714 0.20847,1.73632 -2.46072,1.73632 -2.13798,0 -2.52058,-0.0981 -2.86046,-0.73312 z m -0.9081,-3.30322 c -0.10733,-0.27971 -0.13986,-0.79565 -0.0723,-1.14653 0.1034,-0.53688 0.48378,-0.63797 2.40067,-0.63797 2.06335,0 2.31828,0.0812 2.70768,0.86225 0.23643,0.47424 0.35082,0.99017 0.25419,1.14653 -0.0966,0.15635 -1.28256,0.28428 -2.63539,0.28428 -1.81667,0 -2.51072,-0.13296 -2.65486,-0.50856 z m 1.36383,-2.95131 c -1.39392,-0.10085 -1.49931,-0.18032 -1.49931,-1.13054 0,-0.87803 0.16159,-1.04947 1.14653,-1.21653 0.63059,-0.10695 1.46403,-0.12629 1.85209,-0.043 0.38805,0.0833 0.90399,0.16364 1.14652,0.17848 0.24458,0.015 0.44098,0.48002 0.44098,1.0442 0,1.14727 -0.54034,1.35161 -3.08681,1.16737 z m -1.08205,-4.37146 c 0.11175,-1.16318 0.11468,-1.16484 2.05219,-1.16484 1.92068,0 1.94028,0.0107 1.94028,1.05834 0,1.04243 -0.0308,1.05993 -2.05219,1.16484 l -2.05219,0.1065 z m 1.02175,-2.72765 c -0.42673,-0.27009 -0.41241,-0.45289 0.0963,-1.22932 0.47818,-0.7298 0.88016,-0.91205 2.01165,-0.91205 1.57647,0 2.0338,0.5645 1.40666,1.73632 -0.29021,0.54226 -0.73354,0.73171 -1.70286,0.72772 -0.72078,-0.003 -1.53608,-0.14817 -1.81178,-0.32267 z m 1.74721,-3.64049 c 0.0325,-1.27595 2.61786,-2.5895 3.02231,-1.53553 0.3835,0.99938 -0.51191,1.9765 -1.81121,1.9765 -0.74865,0 -1.21797,-0.17088 -1.2111,-0.44097 z m 2.22494,-3.28425 c -0.2209,-0.57567 1.544,-2.72847 2.00385,-2.44426 0.32096,0.19836 0.008,1.9742 -0.44999,2.55351 -0.48206,0.60975 -1.30002,0.55223 -1.55386,-0.10925 z"
         id="path62485"
         clip-path="url(#clipPath1188-8-5-3-63-74)"
         sodipodi:nodetypes="csccccscccscccccscssscccccccccccssccsssccsssscccscccscccccsssssscssssscssscssscccscsccccssssssscccsscccsccccccsccccsscscccssccsccscsscsccssccccsscscssc"
         transform="translate(-117.48382,-77.01617)" />
      <path
         style="fill:#006400;fill-opacity:1;stroke-width:0.352778"
         d="m 200.9346,281.87082 c 0.74398,-4.35926 1.68409,-8.10812 1.64493,-11.64973 -0.0548,-4.95694 -3.83041,-12.88428 -4.51364,-12.88428 -1.81883,1.3221 -2.66656,3.78345 -3.4198,7.51021 -0.41462,-4.70715 -0.33889,-6.86243 2.59009,-9.40799 -0.39462,-2.78048 -4.08271,-6.44961 -4.12207,-9.04571 0.69415,-5.18364 0.22193,-4.55104 1.44126,-0.1766 1.01554,3.64329 2.5825,6.66183 4.85759,9.92574 5.31001,8.92316 4.68006,12.04634 3.72161,17.9671 z m 31.03027,-26.62856 c -1.37482,-2.61729 -3.18311,-5.97303 -1.82441,-9.13492 -0.0179,5.08417 6.14416,10.11681 6.6964,12.05508 l -3.36405,-1.13959 c -6.17578,13.30627 -0.21702,19.15697 0.025,26.37089 -8.06625,-16.54091 -3.89653,-22.71799 -1.53299,-28.15146 z m -19.61472,22.59519 c 0.31067,-1.87749 0.4034,-2.02847 1.24586,-2.02847 0.89299,0 0.87511,0.8434 -0.0496,2.33961 -1.01904,1.64884 -1.49989,1.52377 -1.19627,-0.31114 z m 29.33603,-35.19413 c -4.11288,-12.29251 -6.72759,-14.56046 -15.89099,-13.55704 0.47071,-0.89271 0.98354,-1.1599 1.87374,-1.80209 -3.22641,-2.26736 -11.01462,-4.09029 -10.18363,-9.74124 3.30317,5.79025 8.03799,5.70027 12.28763,9.52114 6.79182,0.47219 11.19537,8.32621 13.74134,14.55042 10.63855,17.65813 5.97497,33.07575 0.9419,36.13361 5.85959,-7.65148 4.50914,-24.47824 -2.76999,-35.1048 z m -59.34043,25.02615 c 0,0 -3.1263,-5.43864 1.83036,-21.7322 2.97862,-3.36265 2.44978,-16.45605 14.05324,-18.96721 0.77612,-0.13883 1.80799,-0.61631 2.29306,-1.06109 0.7798,-0.71502 3.40901,-2.54956 5.08178,-3.54582 1.30998,-0.7802 2.61744,-3.54679 1.76209,-10.23056 -0.0474,-3.92202 -0.46453,-5.64795 1.13384,-9.02108 2.39624,-5.05693 7.20908,-7.53355 13.44463,-5.82568 3.24889,0.88984 7.94312,4.55774 7.34422,10.02642 l -0.42583,3.88826 c -0.26172,2.38979 1.31101,3.46351 -0.0539,4.80215 -1.97301,0.92321 -2.18398,1.08057 -4.35093,4.80136 -0.67332,0.36035 -0.72894,0.33176 -0.49009,-0.25192 0.14819,-0.36212 0.46686,-1.38009 0.70815,-2.26217 0.67286,-2.45975 1.15497,-3.15873 2.17867,-3.15873 0.82821,0 0.88135,-0.085 0.60627,-0.97013 -0.16582,-0.53358 -0.3021,-2.98011 -0.30282,-5.43674 -0.001,-4.40406 -0.0163,-4.48794 -1.07277,-5.992 -3.36103,-4.7851 -10.07383,-5.16243 -14.37279,-0.80792 -2.08381,2.11075 -2.68505,4.42993 -2.2967,11.66903 -0.40263,6.69689 -0.0505,8.31135 -4.26138,11.65704 -2.97999,1.48325 -5.77635,4.42139 -6.75032,7.09259 -0.85793,4.85975 -1.21112,2.11954 -1.34605,-0.10214 0.0803,-1.26118 1.10278,-3.18549 1.10278,-3.18549 -1.94864,0.13625 -3.39965,1.465 -4.90196,3.05523 -3.52916,3.20405 -4.47801,8.54655 -7.83922,16.69474 -2.31023,8.28444 -2.45674,10.94676 -1.00509,21.55954 -2.06924,-2.69548 0,0 -2.06924,-2.69548 z m 30.90467,6.93853 c -0.23419,-0.28217 -0.31224,-0.88957 -0.18134,-1.41111 0.1914,-0.76263 0.43166,-0.91569 1.43737,-0.91569 1.46264,0 1.84481,0.71422 1.03967,1.943 -0.63797,0.97367 -1.66382,1.14517 -2.2957,0.3838 z m 0.76574,-3.28132 c -0.63918,-0.12311 -0.79375,-0.38854 -0.79375,-1.36307 v -1.21018 h 1.76389 c 1.69669,0 1.76389,0.0376 1.76389,0.98777 0,1.61819 -0.63932,1.98894 -2.73403,1.58548 z m -1.01105,-4.14015 c -0.50637,-1.3196 -0.007,-1.78164 2.04373,-1.88942 1.70615,-0.0897 2.02695,-0.007 2.20943,0.56766 0.43435,1.36851 -0.10671,1.83032 -2.14439,1.83032 -1.34109,0 -1.972,-0.15215 -2.10877,-0.50856 z m -0.63719,-3.91738 c -0.32821,-1.30768 -0.009,-1.57128 1.90479,-1.57128 2.35254,0 2.83026,0.24455 2.83026,1.44886 0,1.01915 -0.003,1.02058 -2.25481,1.02058 -2.12179,0 -2.26811,-0.053 -2.48024,-0.89816 z m -7.43504,-42.72543 c -230.906378,-131.436058 -115.453189,-65.71803 0,0 z m 6.84762,40.07828 c -0.17125,-0.10666 -0.41296,-0.70197 -0.53715,-1.32292 l -0.2258,-1.12899 h 2.31715 c 1.99456,0 2.3936,0.10916 2.86632,0.78405 0.9574,1.36689 0.70159,1.61745 -1.78,1.74349 -1.28105,0.0651 -2.46928,0.031 -2.64052,-0.0756 z m -1.50202,-3.8026 c -0.32112,-0.35483 -0.58385,-0.98983 -0.58385,-1.41111 0,-0.71822 0.16542,-0.76598 2.6534,-0.76598 2.46943,0 2.68055,0.0596 3.04499,0.85945 0.70172,1.54012 0.21049,1.96278 -2.28125,1.96278 -1.73121,0 -2.38396,-0.14864 -2.83329,-0.64514 z m -1.46654,-3.39206 c -0.26245,-0.20482 -0.5284,-0.76927 -0.591,-1.25434 -0.11138,-0.86315 -0.0586,-0.88417 2.47646,-0.98625 1.49045,-0.06 2.78451,0.0569 3.04774,0.27535 0.48192,0.39996 0.94416,2.1146 0.57488,2.13243 -3.71614,0.17942 -5.11847,0.13685 -5.50808,-0.16719 z m -1.51003,-3.4592 c -0.19935,-0.24254 -0.41723,-0.75847 -0.48417,-1.14653 -0.11242,-0.65167 0.0998,-0.71336 2.77844,-0.80785 2.83067,-0.0999 2.90542,-0.0813 3.12002,0.7737 0.12092,0.4818 0.11617,1.04377 -0.0105,1.24882 -0.33095,0.53549 -4.95552,0.47717 -5.40373,-0.0681 z m -1.50259,-3.81987 c -0.73167,-1.36715 -0.20847,-1.73633 2.46072,-1.73633 2.13799,0 2.52058,0.0981 2.86046,0.73312 0.73167,1.36714 0.20847,1.73632 -2.46072,1.73632 -2.13798,0 -2.52058,-0.0981 -2.86046,-0.73312 z m -0.9081,-3.30322 c -0.10733,-0.27971 -0.13986,-0.79565 -0.0723,-1.14653 0.1034,-0.53688 0.48378,-0.63797 2.40067,-0.63797 2.06335,0 2.31828,0.0812 2.70768,0.86225 0.23643,0.47424 0.35082,0.99017 0.25419,1.14653 -0.0966,0.15635 -1.28256,0.28428 -2.63539,0.28428 -1.81667,0 -2.51072,-0.13296 -2.65486,-0.50856 z m 1.36383,-2.95131 c -1.39392,-0.10085 -1.49931,-0.18032 -1.49931,-1.13054 0,-0.87803 0.16159,-1.04947 1.14653,-1.21653 0.63059,-0.10695 1.46403,-0.12629 1.85209,-0.043 0.38805,0.0833 0.90399,0.16364 1.14652,0.17848 0.24458,0.015 0.44098,0.48002 0.44098,1.0442 0,1.14727 -0.54034,1.35161 -3.08681,1.16737 z m -1.08205,-4.37146 c 0.11175,-1.16318 0.11468,-1.16484 2.05219,-1.16484 1.92068,0 1.94028,0.0107 1.94028,1.05834 0,1.04243 -0.0308,1.05993 -2.05219,1.16484 l -2.05219,0.1065 z m 1.02175,-2.72765 c -0.42673,-0.27009 -0.41241,-0.45289 0.0963,-1.22932 0.47818,-0.7298 0.88016,-0.91205 2.01165,-0.91205 1.57647,0 2.0338,0.5645 1.40666,1.73632 -0.29021,0.54226 -0.73354,0.73171 -1.70286,0.72772 -0.72078,-0.003 -1.53608,-0.14817 -1.81178,-0.32267 z m 1.74721,-3.64049 c 0.0325,-1.27595 2.61786,-2.5895 3.02231,-1.53553 0.3835,0.99938 -0.51191,1.9765 -1.81121,1.9765 -0.74865,0 -1.21797,-0.17088 -1.2111,-0.44097 z m 2.22494,-3.28425 c -0.2209,-0.57567 1.544,-2.72847 2.00385,-2.44426 0.32096,0.19836 0.008,1.9742 -0.44999,2.55351 -0.48206,0.60975 -1.30002,0.55223 -1.55386,-0.10925 z"
         id="path62487"
         clip-path="url(#clipPath1188-8-5-3-63-74)"
         sodipodi:nodetypes="csccccscccscccccscssscccccccccccssccsssccsssscccscccscccccsssssscssssscssscssscccscsccccssssssscccsscccsccccccsccccsscscccssccsccscsscsccssccccsscscssc"
         transform="translate(-117.48382,-77.01617)" />
      <ellipse
         style="opacity:0.78;fill:#ffffff;fill-opacity:0;stroke:#006400;stroke-width:3.24562;stroke-miterlimit:4;stroke-dasharray:none;stroke-opacity:1"
         id="ellipse62489"
         cx="323.50464"
         cy="52.176182"
         rx="46.228374"
         ry="44.209038"
         clip-path="url(#clipPath47260)"
         transform="matrix(0.96807403,0,0,0.96807403,-214.76647,122.35216)" />
      <path
         style="opacity:0.54;fill:url(#linearGradient60732);fill-opacity:1;stroke-width:0.353;stroke-miterlimit:4;stroke-dasharray:none"
         d="m 245.29054,239.96849 c -1.24861,-3.76877 -4.9021,-12.42991 -11.78341,-14.46648 -1.2526,-0.27267 -7.7459,-3.36827 -7.02077,-4.09284 -0.25099,-4.21183 5.55317,-1.95623 3.79105,-10.08336 21.38354,7.40398 32.25271,29.67539 22.09851,51.57942 -0.85537,-8.67843 -3.78121,-17.52309 -7.08538,-22.93674 z M 205.93549,210.0718 c 0.76447,5.95431 -0.17402,7.30089 -1.00258,10.47192 -2.88287,2.26011 -3.51799,1.11756 -7.32289,4.84837 -3.25146,0.13387 -9.97967,3.11938 -12.61898,13.13018 -0.46121,4.76302 -5.34259,7.72729 -5.76224,23.82946 -7.23531,-12.87414 -5.20814,-43.53572 26.70669,-52.27993 z"
         id="path62491"
         clip-path="url(#clipPath1188-8-5-2-6-5)"
         sodipodi:nodetypes="ccccccccsccc"
         transform="translate(-117.49317,-76.12741)" />
      <path
         style="fill:#006400;fill-opacity:1;stroke-width:0.352778"
         d="m 200.9346,281.87082 c 0.74398,-4.35926 1.68409,-8.10812 1.64493,-11.64973 -0.0548,-4.95694 -3.83041,-12.88428 -4.51364,-12.88428 -1.81883,1.3221 -2.66656,3.78345 -3.4198,7.51021 -0.41462,-4.70715 -0.33889,-6.86243 2.59009,-9.40799 -0.39462,-2.78048 -4.08271,-6.44961 -4.12207,-9.04571 0.69415,-5.18364 0.22193,-4.55104 1.44126,-0.1766 1.01554,3.64329 2.5825,6.66183 4.85759,9.92574 5.31001,8.92316 4.68006,12.04634 3.72161,17.9671 z m 31.03027,-26.62856 c -1.37482,-2.61729 -3.18311,-5.97303 -1.82441,-9.13492 -0.0179,5.08417 6.14416,10.11681 6.6964,12.05508 l -3.36405,-1.13959 c -6.17578,13.30627 -0.21702,19.15697 0.025,26.37089 -8.06625,-16.54091 -3.89653,-22.71799 -1.53299,-28.15146 z m -19.61472,22.59519 c 0.31067,-1.87749 0.4034,-2.02847 1.24586,-2.02847 0.89299,0 0.87511,0.8434 -0.0496,2.33961 -1.01904,1.64884 -1.49989,1.52377 -1.19627,-0.31114 z m 29.33603,-35.19413 c -4.11288,-12.29251 -6.72759,-14.56046 -15.89099,-13.55704 0.47071,-0.89271 0.98354,-1.1599 1.87374,-1.80209 -3.22641,-2.26736 -11.01462,-4.09029 -10.18363,-9.74124 3.30317,5.79025 8.03799,5.70027 12.28763,9.52114 6.79182,0.47219 11.19537,8.32621 13.74134,14.55042 10.63855,17.65813 5.97497,33.07575 0.9419,36.13361 5.85959,-7.65148 4.50914,-24.47824 -2.76999,-35.1048 z m -59.34043,25.02615 c 0,0 -3.1263,-5.43864 1.83036,-21.7322 2.97862,-3.36265 2.44978,-16.45605 14.05324,-18.96721 0.77612,-0.13883 1.80799,-0.61631 2.29306,-1.06109 0.7798,-0.71502 3.40901,-2.54956 5.08178,-3.54582 1.30998,-0.7802 2.61744,-3.54679 1.76209,-10.23056 -0.0474,-3.92202 -0.46453,-5.64795 1.13384,-9.02108 2.39624,-5.05693 7.20908,-7.53355 13.44463,-5.82568 3.24889,0.88984 7.94312,4.55774 7.34422,10.02642 l -0.42583,3.88826 c -0.26172,2.38979 1.31101,3.46351 -0.0539,4.80215 -1.97301,0.92321 -2.18398,1.08057 -4.35093,4.80136 -0.67332,0.36035 -0.72894,0.33176 -0.49009,-0.25192 0.14819,-0.36212 0.46686,-1.38009 0.70815,-2.26217 0.67286,-2.45975 1.15497,-3.15873 2.17867,-3.15873 0.82821,0 0.88135,-0.085 0.60627,-0.97013 -0.16582,-0.53358 -0.3021,-2.98011 -0.30282,-5.43674 -0.001,-4.40406 -0.0163,-4.48794 -1.07277,-5.992 -3.36103,-4.7851 -10.07383,-5.16243 -14.37279,-0.80792 -2.08381,2.11075 -2.68505,4.42993 -2.2967,11.66903 -0.40263,6.69689 -0.0505,8.31135 -4.26138,11.65704 -2.97999,1.48325 -5.77635,4.42139 -6.75032,7.09259 -0.85793,4.85975 -1.21112,2.11954 -1.34605,-0.10214 0.0803,-1.26118 1.10278,-3.18549 1.10278,-3.18549 -1.94864,0.13625 -3.39965,1.465 -4.90196,3.05523 -3.52916,3.20405 -4.47801,8.54655 -7.83922,16.69474 -2.31023,8.28444 -2.45674,10.94676 -1.00509,21.55954 -2.06924,-2.69548 0,0 -2.06924,-2.69548 z m 30.90467,6.93853 c -0.23419,-0.28217 -0.31224,-0.88957 -0.18134,-1.41111 0.1914,-0.76263 0.43166,-0.91569 1.43737,-0.91569 1.46264,0 1.84481,0.71422 1.03967,1.943 -0.63797,0.97367 -1.66382,1.14517 -2.2957,0.3838 z m 0.76574,-3.28132 c -0.63918,-0.12311 -0.79375,-0.38854 -0.79375,-1.36307 v -1.21018 h 1.76389 c 1.69669,0 1.76389,0.0376 1.76389,0.98777 0,1.61819 -0.63932,1.98894 -2.73403,1.58548 z m -1.01105,-4.14015 c -0.50637,-1.3196 -0.007,-1.78164 2.04373,-1.88942 1.70615,-0.0897 2.02695,-0.007 2.20943,0.56766 0.43435,1.36851 -0.10671,1.83032 -2.14439,1.83032 -1.34109,0 -1.972,-0.15215 -2.10877,-0.50856 z m -0.63719,-3.91738 c -0.32821,-1.30768 -0.009,-1.57128 1.90479,-1.57128 2.35254,0 2.83026,0.24455 2.83026,1.44886 0,1.01915 -0.003,1.02058 -2.25481,1.02058 -2.12179,0 -2.26811,-0.053 -2.48024,-0.89816 z m -7.43504,-42.72543 c -230.906378,-131.436058 -115.453189,-65.71803 0,0 z m 6.84762,40.07828 c -0.17125,-0.10666 -0.41296,-0.70197 -0.53715,-1.32292 l -0.2258,-1.12899 h 2.31715 c 1.99456,0 2.3936,0.10916 2.86632,0.78405 0.9574,1.36689 0.70159,1.61745 -1.78,1.74349 -1.28105,0.0651 -2.46928,0.031 -2.64052,-0.0756 z m -1.50202,-3.8026 c -0.32112,-0.35483 -0.58385,-0.98983 -0.58385,-1.41111 0,-0.71822 0.16542,-0.76598 2.6534,-0.76598 2.46943,0 2.68055,0.0596 3.04499,0.85945 0.70172,1.54012 0.21049,1.96278 -2.28125,1.96278 -1.73121,0 -2.38396,-0.14864 -2.83329,-0.64514 z m -1.46654,-3.39206 c -0.26245,-0.20482 -0.5284,-0.76927 -0.591,-1.25434 -0.11138,-0.86315 -0.0586,-0.88417 2.47646,-0.98625 1.49045,-0.06 2.78451,0.0569 3.04774,0.27535 0.48192,0.39996 0.94416,2.1146 0.57488,2.13243 -3.71614,0.17942 -5.11847,0.13685 -5.50808,-0.16719 z m -1.51003,-3.4592 c -0.19935,-0.24254 -0.41723,-0.75847 -0.48417,-1.14653 -0.11242,-0.65167 0.0998,-0.71336 2.77844,-0.80785 2.83067,-0.0999 2.90542,-0.0813 3.12002,0.7737 0.12092,0.4818 0.11617,1.04377 -0.0105,1.24882 -0.33095,0.53549 -4.95552,0.47717 -5.40373,-0.0681 z m -1.50259,-3.81987 c -0.73167,-1.36715 -0.20847,-1.73633 2.46072,-1.73633 2.13799,0 2.52058,0.0981 2.86046,0.73312 0.73167,1.36714 0.20847,1.73632 -2.46072,1.73632 -2.13798,0 -2.52058,-0.0981 -2.86046,-0.73312 z m -0.9081,-3.30322 c -0.10733,-0.27971 -0.13986,-0.79565 -0.0723,-1.14653 0.1034,-0.53688 0.48378,-0.63797 2.40067,-0.63797 2.06335,0 2.31828,0.0812 2.70768,0.86225 0.23643,0.47424 0.35082,0.99017 0.25419,1.14653 -0.0966,0.15635 -1.28256,0.28428 -2.63539,0.28428 -1.81667,0 -2.51072,-0.13296 -2.65486,-0.50856 z m 1.36383,-2.95131 c -1.39392,-0.10085 -1.49931,-0.18032 -1.49931,-1.13054 0,-0.87803 0.16159,-1.04947 1.14653,-1.21653 0.63059,-0.10695 1.46403,-0.12629 1.85209,-0.043 0.38805,0.0833 0.90399,0.16364 1.14652,0.17848 0.24458,0.015 0.44098,0.48002 0.44098,1.0442 0,1.14727 -0.54034,1.35161 -3.08681,1.16737 z m -1.08205,-4.37146 c 0.11175,-1.16318 0.11468,-1.16484 2.05219,-1.16484 1.92068,0 1.94028,0.0107 1.94028,1.05834 0,1.04243 -0.0308,1.05993 -2.05219,1.16484 l -2.05219,0.1065 z m 1.02175,-2.72765 c -0.42673,-0.27009 -0.41241,-0.45289 0.0963,-1.22932 0.47818,-0.7298 0.88016,-0.91205 2.01165,-0.91205 1.57647,0 2.0338,0.5645 1.40666,1.73632 -0.29021,0.54226 -0.73354,0.73171 -1.70286,0.72772 -0.72078,-0.003 -1.53608,-0.14817 -1.81178,-0.32267 z m 1.74721,-3.64049 c 0.0325,-1.27595 2.61786,-2.5895 3.02231,-1.53553 0.3835,0.99938 -0.51191,1.9765 -1.81121,1.9765 -0.74865,0 -1.21797,-0.17088 -1.2111,-0.44097 z m 2.22494,-3.28425 c -0.2209,-0.57567 1.544,-2.72847 2.00385,-2.44426 0.32096,0.19836 0.008,1.9742 -0.44999,2.55351 -0.48206,0.60975 -1.30002,0.55223 -1.55386,-0.10925 z"
         id="path62493"
         clip-path="url(#clipPath1188-8-5-3-63-74)"
         sodipodi:nodetypes="csccccscccscccccscssscccccccccccssccsssccsssscccscccscccccsssssscssssscssscssscccscsccccssssssscccsscccsccccccsccccsscscccssccsccscsscsccssccccsscscssc"
         transform="translate(-117.48382,-77.01617)" />
      <path
         style="fill:#006400;fill-opacity:1;stroke-width:0.352778"
         d="m 200.9346,281.87082 c 0.74398,-4.35926 1.68409,-8.10812 1.64493,-11.64973 -0.0548,-4.95694 -3.83041,-12.88428 -4.51364,-12.88428 -1.81883,1.3221 -2.66656,3.78345 -3.4198,7.51021 -0.41462,-4.70715 -0.33889,-6.86243 2.59009,-9.40799 -0.39462,-2.78048 -4.08271,-6.44961 -4.12207,-9.04571 0.69415,-5.18364 0.22193,-4.55104 1.44126,-0.1766 1.01554,3.64329 2.5825,6.66183 4.85759,9.92574 5.31001,8.92316 4.68006,12.04634 3.72161,17.9671 z m 31.03027,-26.62856 c -1.37482,-2.61729 -3.18311,-5.97303 -1.82441,-9.13492 -0.0179,5.08417 6.14416,10.11681 6.6964,12.05508 l -3.36405,-1.13959 c -6.17578,13.30627 -0.21702,19.15697 0.025,26.37089 -8.06625,-16.54091 -3.89653,-22.71799 -1.53299,-28.15146 z m -19.61472,22.59519 c 0.31067,-1.87749 0.4034,-2.02847 1.24586,-2.02847 0.89299,0 0.87511,0.8434 -0.0496,2.33961 -1.01904,1.64884 -1.49989,1.52377 -1.19627,-0.31114 z m 29.33603,-35.19413 c -4.11288,-12.29251 -6.72759,-14.56046 -15.89099,-13.55704 0.47071,-0.89271 0.98354,-1.1599 1.87374,-1.80209 -3.22641,-2.26736 -11.01462,-4.09029 -10.18363,-9.74124 3.30317,5.79025 8.03799,5.70027 12.28763,9.52114 6.79182,0.47219 11.19537,8.32621 13.74134,14.55042 10.63855,17.65813 5.97497,33.07575 0.9419,36.13361 5.85959,-7.65148 4.50914,-24.47824 -2.76999,-35.1048 z m -59.34043,25.02615 c 0,0 -3.1263,-5.43864 1.83036,-21.7322 2.97862,-3.36265 2.44978,-16.45605 14.05324,-18.96721 0.77612,-0.13883 1.80799,-0.61631 2.29306,-1.06109 0.7798,-0.71502 3.40901,-2.54956 5.08178,-3.54582 1.30998,-0.7802 2.61744,-3.54679 1.76209,-10.23056 -0.0474,-3.92202 -0.46453,-5.64795 1.13384,-9.02108 2.39624,-5.05693 7.20908,-7.53355 13.44463,-5.82568 3.24889,0.88984 7.94312,4.55774 7.34422,10.02642 l -0.42583,3.88826 c -0.26172,2.38979 1.31101,3.46351 -0.0539,4.80215 -1.97301,0.92321 -2.18398,1.08057 -4.35093,4.80136 -0.67332,0.36035 -0.72894,0.33176 -0.49009,-0.25192 0.14819,-0.36212 0.46686,-1.38009 0.70815,-2.26217 0.67286,-2.45975 1.15497,-3.15873 2.17867,-3.15873 0.82821,0 0.88135,-0.085 0.60627,-0.97013 -0.16582,-0.53358 -0.3021,-2.98011 -0.30282,-5.43674 -0.001,-4.40406 -0.0163,-4.48794 -1.07277,-5.992 -3.36103,-4.7851 -10.07383,-5.16243 -14.37279,-0.80792 -2.08381,2.11075 -2.68505,4.42993 -2.2967,11.66903 -0.40263,6.69689 -0.0505,8.31135 -4.26138,11.65704 -2.97999,1.48325 -5.77635,4.42139 -6.75032,7.09259 -0.85793,4.85975 -1.21112,2.11954 -1.34605,-0.10214 0.0803,-1.26118 1.10278,-3.18549 1.10278,-3.18549 -1.94864,0.13625 -3.39965,1.465 -4.90196,3.05523 -3.52916,3.20405 -4.47801,8.54655 -7.83922,16.69474 -2.31023,8.28444 -2.45674,10.94676 -1.00509,21.55954 -2.06924,-2.69548 0,0 -2.06924,-2.69548 z m 30.90467,6.93853 c -0.23419,-0.28217 -0.31224,-0.88957 -0.18134,-1.41111 0.1914,-0.76263 0.43166,-0.91569 1.43737,-0.91569 1.46264,0 1.84481,0.71422 1.03967,1.943 -0.63797,0.97367 -1.66382,1.14517 -2.2957,0.3838 z m 0.76574,-3.28132 c -0.63918,-0.12311 -0.79375,-0.38854 -0.79375,-1.36307 v -1.21018 h 1.76389 c 1.69669,0 1.76389,0.0376 1.76389,0.98777 0,1.61819 -0.63932,1.98894 -2.73403,1.58548 z m -1.01105,-4.14015 c -0.50637,-1.3196 -0.007,-1.78164 2.04373,-1.88942 1.70615,-0.0897 2.02695,-0.007 2.20943,0.56766 0.43435,1.36851 -0.10671,1.83032 -2.14439,1.83032 -1.34109,0 -1.972,-0.15215 -2.10877,-0.50856 z m -0.63719,-3.91738 c -0.32821,-1.30768 -0.009,-1.57128 1.90479,-1.57128 2.35254,0 2.83026,0.24455 2.83026,1.44886 0,1.01915 -0.003,1.02058 -2.25481,1.02058 -2.12179,0 -2.26811,-0.053 -2.48024,-0.89816 z m -7.43504,-42.72543 c -230.906378,-131.436058 -115.453189,-65.71803 0,0 z m 6.84762,40.07828 c -0.17125,-0.10666 -0.41296,-0.70197 -0.53715,-1.32292 l -0.2258,-1.12899 h 2.31715 c 1.99456,0 2.3936,0.10916 2.86632,0.78405 0.9574,1.36689 0.70159,1.61745 -1.78,1.74349 -1.28105,0.0651 -2.46928,0.031 -2.64052,-0.0756 z m -1.50202,-3.8026 c -0.32112,-0.35483 -0.58385,-0.98983 -0.58385,-1.41111 0,-0.71822 0.16542,-0.76598 2.6534,-0.76598 2.46943,0 2.68055,0.0596 3.04499,0.85945 0.70172,1.54012 0.21049,1.96278 -2.28125,1.96278 -1.73121,0 -2.38396,-0.14864 -2.83329,-0.64514 z m -1.46654,-3.39206 c -0.26245,-0.20482 -0.5284,-0.76927 -0.591,-1.25434 -0.11138,-0.86315 -0.0586,-0.88417 2.47646,-0.98625 1.49045,-0.06 2.78451,0.0569 3.04774,0.27535 0.48192,0.39996 0.94416,2.1146 0.57488,2.13243 -3.71614,0.17942 -5.11847,0.13685 -5.50808,-0.16719 z m -1.51003,-3.4592 c -0.19935,-0.24254 -0.41723,-0.75847 -0.48417,-1.14653 -0.11242,-0.65167 0.0998,-0.71336 2.77844,-0.80785 2.83067,-0.0999 2.90542,-0.0813 3.12002,0.7737 0.12092,0.4818 0.11617,1.04377 -0.0105,1.24882 -0.33095,0.53549 -4.95552,0.47717 -5.40373,-0.0681 z m -1.50259,-3.81987 c -0.73167,-1.36715 -0.20847,-1.73633 2.46072,-1.73633 2.13799,0 2.52058,0.0981 2.86046,0.73312 0.73167,1.36714 0.20847,1.73632 -2.46072,1.73632 -2.13798,0 -2.52058,-0.0981 -2.86046,-0.73312 z m -0.9081,-3.30322 c -0.10733,-0.27971 -0.13986,-0.79565 -0.0723,-1.14653 0.1034,-0.53688 0.48378,-0.63797 2.40067,-0.63797 2.06335,0 2.31828,0.0812 2.70768,0.86225 0.23643,0.47424 0.35082,0.99017 0.25419,1.14653 -0.0966,0.15635 -1.28256,0.28428 -2.63539,0.28428 -1.81667,0 -2.51072,-0.13296 -2.65486,-0.50856 z m 1.36383,-2.95131 c -1.39392,-0.10085 -1.49931,-0.18032 -1.49931,-1.13054 0,-0.87803 0.16159,-1.04947 1.14653,-1.21653 0.63059,-0.10695 1.46403,-0.12629 1.85209,-0.043 0.38805,0.0833 0.90399,0.16364 1.14652,0.17848 0.24458,0.015 0.44098,0.48002 0.44098,1.0442 0,1.14727 -0.54034,1.35161 -3.08681,1.16737 z m -1.08205,-4.37146 c 0.11175,-1.16318 0.11468,-1.16484 2.05219,-1.16484 1.92068,0 1.94028,0.0107 1.94028,1.05834 0,1.04243 -0.0308,1.05993 -2.05219,1.16484 l -2.05219,0.1065 z m 1.02175,-2.72765 c -0.42673,-0.27009 -0.41241,-0.45289 0.0963,-1.22932 0.47818,-0.7298 0.88016,-0.91205 2.01165,-0.91205 1.57647,0 2.0338,0.5645 1.40666,1.73632 -0.29021,0.54226 -0.73354,0.73171 -1.70286,0.72772 -0.72078,-0.003 -1.53608,-0.14817 -1.81178,-0.32267 z m 1.74721,-3.64049 c 0.0325,-1.27595 2.61786,-2.5895 3.02231,-1.53553 0.3835,0.99938 -0.51191,1.9765 -1.81121,1.9765 -0.74865,0 -1.21797,-0.17088 -1.2111,-0.44097 z m 2.22494,-3.28425 c -0.2209,-0.57567 1.544,-2.72847 2.00385,-2.44426 0.32096,0.19836 0.008,1.9742 -0.44999,2.55351 -0.48206,0.60975 -1.30002,0.55223 -1.55386,-0.10925 z"
         id="path62495"
         clip-path="url(#clipPath1188-8-5-3-63-74)"
         sodipodi:nodetypes="csccccscccscccccscssscccccccccccssccsssccsssscccscccscccccsssssscssssscssscssscccscsccccssssssscccsscccsccccccsccccsscscccssccsccscsscsccssccccsscscssc"
         transform="translate(-117.48382,-77.01617)" />
      <path
         style="fill:#006400;fill-opacity:1;stroke-width:0.352778"
         d="m 200.9346,281.87082 c 0.74398,-4.35926 1.68409,-8.10812 1.64493,-11.64973 -0.0548,-4.95694 -3.83041,-12.88428 -4.51364,-12.88428 -1.81883,1.3221 -2.66656,3.78345 -3.4198,7.51021 -0.41462,-4.70715 -0.33889,-6.86243 2.59009,-9.40799 -0.39462,-2.78048 -4.08271,-6.44961 -4.12207,-9.04571 0.69415,-5.18364 0.22193,-4.55104 1.44126,-0.1766 1.01554,3.64329 2.5825,6.66183 4.85759,9.92574 5.31001,8.92316 4.68006,12.04634 3.72161,17.9671 z m 31.03027,-26.62856 c -1.37482,-2.61729 -3.18311,-5.97303 -1.82441,-9.13492 -0.0179,5.08417 6.14416,10.11681 6.6964,12.05508 l -3.36405,-1.13959 c -6.17578,13.30627 -0.21702,19.15697 0.025,26.37089 -8.06625,-16.54091 -3.89653,-22.71799 -1.53299,-28.15146 z m -19.61472,22.59519 c 0.31067,-1.87749 0.4034,-2.02847 1.24586,-2.02847 0.89299,0 0.87511,0.8434 -0.0496,2.33961 -1.01904,1.64884 -1.49989,1.52377 -1.19627,-0.31114 z m 29.33603,-35.19413 c -4.11288,-12.29251 -6.72759,-14.56046 -15.89099,-13.55704 0.47071,-0.89271 0.98354,-1.1599 1.87374,-1.80209 -3.22641,-2.26736 -11.01462,-4.09029 -10.18363,-9.74124 3.30317,5.79025 8.03799,5.70027 12.28763,9.52114 6.79182,0.47219 11.19537,8.32621 13.74134,14.55042 10.63855,17.65813 5.97497,33.07575 0.9419,36.13361 5.85959,-7.65148 4.50914,-24.47824 -2.76999,-35.1048 z m -59.34043,25.02615 c 0,0 -3.1263,-5.43864 1.83036,-21.7322 2.97862,-3.36265 2.44978,-16.45605 14.05324,-18.96721 0.77612,-0.13883 1.80799,-0.61631 2.29306,-1.06109 0.7798,-0.71502 3.40901,-2.54956 5.08178,-3.54582 1.30998,-0.7802 2.61744,-3.54679 1.76209,-10.23056 -0.0474,-3.92202 -0.46453,-5.64795 1.13384,-9.02108 2.39624,-5.05693 7.20908,-7.53355 13.44463,-5.82568 3.24889,0.88984 7.94312,4.55774 7.34422,10.02642 l -0.42583,3.88826 c -0.26172,2.38979 1.31101,3.46351 -0.0539,4.80215 -1.97301,0.92321 -2.18398,1.08057 -4.35093,4.80136 -0.67332,0.36035 -0.72894,0.33176 -0.49009,-0.25192 0.14819,-0.36212 0.70815,-2.26217 0.70815,-2.26217 0,0 3.2671,-2.56466 3.0711,-3.5157 2.50531,-1.2536 -0.58898,-6.0499 -0.58898,-6.0499 -0.001,-4.40406 -0.0163,-4.48794 -1.07277,-5.992 -3.36103,-4.7851 -10.07383,-5.16243 -14.37279,-0.80792 -2.08381,2.11075 -2.68505,4.42993 -2.2967,11.66903 -0.40263,6.69689 -0.0505,8.31135 -4.26138,11.65704 -2.97999,1.48325 -5.77635,4.42139 -6.75032,7.09259 -0.85793,4.85975 -1.21112,2.11954 -1.34605,-0.10214 0.0803,-1.26118 1.10278,-3.18549 1.10278,-3.18549 -1.94864,0.13625 -3.39965,1.465 -4.90196,3.05523 -3.52916,3.20405 -4.47801,8.54655 -7.83922,16.69474 -2.31023,8.28444 -2.45674,10.94676 -1.00509,21.55954 z m 30.90467,6.93853 c -0.23419,-0.28217 -0.31224,-0.88957 -0.18134,-1.41111 0.1914,-0.76263 0.43166,-0.91569 1.43737,-0.91569 1.46264,0 1.84481,0.71422 1.03967,1.943 -0.63797,0.97367 -1.66382,1.14517 -2.2957,0.3838 z m 0.76574,-3.28132 c -0.63918,-0.12311 -0.79375,-0.38854 -0.79375,-1.36307 v -1.21018 h 1.76389 c 1.69669,0 1.76389,0.0376 1.76389,0.98777 0,1.61819 -0.63932,1.98894 -2.73403,1.58548 z m -1.01105,-4.14015 c -0.50637,-1.3196 -0.007,-1.78164 2.04373,-1.88942 1.70615,-0.0897 2.02695,-0.007 2.20943,0.56766 0.43435,1.36851 -0.10671,1.83032 -2.14439,1.83032 -1.34109,0 -1.972,-0.15215 -2.10877,-0.50856 z m -0.63719,-3.91738 c -0.32821,-1.30768 -0.009,-1.57128 1.90479,-1.57128 2.35254,0 2.83026,0.24455 2.83026,1.44886 0,1.01915 -0.003,1.02058 -2.25481,1.02058 -2.12179,0 -2.26811,-0.053 -2.48024,-0.89816 z m -7.43504,-42.72543 c -230.906378,-131.436058 -115.453189,-65.71803 0,0 z m 6.84762,40.07828 c -0.17125,-0.10666 -0.41296,-0.70197 -0.53715,-1.32292 l -0.2258,-1.12899 h 2.31715 c 1.99456,0 2.3936,0.10916 2.86632,0.78405 0.9574,1.36689 0.70159,1.61745 -1.78,1.74349 -1.28105,0.0651 -2.46928,0.031 -2.64052,-0.0756 z m -1.50202,-3.8026 c -0.32112,-0.35483 -0.58385,-0.98983 -0.58385,-1.41111 0,-0.71822 0.16542,-0.76598 2.6534,-0.76598 2.46943,0 2.68055,0.0596 3.04499,0.85945 0.70172,1.54012 0.21049,1.96278 -2.28125,1.96278 -1.73121,0 -2.38396,-0.14864 -2.83329,-0.64514 z m -1.46654,-3.39206 c -0.26245,-0.20482 -0.5284,-0.76927 -0.591,-1.25434 -0.11138,-0.86315 -0.0586,-0.88417 2.47646,-0.98625 1.49045,-0.06 2.78451,0.0569 3.04774,0.27535 0.48192,0.39996 0.94416,2.1146 0.57488,2.13243 -3.71614,0.17942 -5.11847,0.13685 -5.50808,-0.16719 z m -1.51003,-3.4592 c -0.19935,-0.24254 -0.41723,-0.75847 -0.48417,-1.14653 -0.11242,-0.65167 0.0998,-0.71336 2.77844,-0.80785 2.83067,-0.0999 2.90542,-0.0813 3.12002,0.7737 0.12092,0.4818 0.11617,1.04377 -0.0105,1.24882 -0.33095,0.53549 -4.95552,0.47717 -5.40373,-0.0681 z m -1.50259,-3.81987 c -0.73167,-1.36715 -0.20847,-1.73633 2.46072,-1.73633 2.13799,0 2.52058,0.0981 2.86046,0.73312 0.73167,1.36714 0.20847,1.73632 -2.46072,1.73632 -2.13798,0 -2.52058,-0.0981 -2.86046,-0.73312 z m -0.9081,-3.30322 c -0.10733,-0.27971 -0.13986,-0.79565 -0.0723,-1.14653 0.1034,-0.53688 0.48378,-0.63797 2.40067,-0.63797 2.06335,0 2.31828,0.0812 2.70768,0.86225 0.23643,0.47424 0.35082,0.99017 0.25419,1.14653 -0.0966,0.15635 -1.28256,0.28428 -2.63539,0.28428 -1.81667,0 -2.51072,-0.13296 -2.65486,-0.50856 z m 1.36383,-2.95131 c -1.39392,-0.10085 -1.49931,-0.18032 -1.49931,-1.13054 0,-0.87803 0.16159,-1.04947 1.14653,-1.21653 0.63059,-0.10695 1.46403,-0.12629 1.85209,-0.043 0.38805,0.0833 0.90399,0.16364 1.14652,0.17848 0.24458,0.015 0.44098,0.48002 0.44098,1.0442 0,1.14727 -0.54034,1.35161 -3.08681,1.16737 z m -1.08205,-4.37146 c 0.11175,-1.16318 0.11468,-1.16484 2.05219,-1.16484 1.92068,0 1.94028,0.0107 1.94028,1.05834 0,1.04243 -0.0308,1.05993 -2.05219,1.16484 l -2.05219,0.1065 z m 1.02175,-2.72765 c -0.42673,-0.27009 -0.41241,-0.45289 0.0963,-1.22932 0.47818,-0.7298 0.88016,-0.91205 2.01165,-0.91205 1.57647,0 2.0338,0.5645 1.40666,1.73632 -0.29021,0.54226 -0.73354,0.73171 -1.70286,0.72772 -0.72078,-0.003 -1.53608,-0.14817 -1.81178,-0.32267 z m 1.74721,-3.64049 c 0.0325,-1.27595 2.61786,-2.5895 3.02231,-1.53553 0.3835,0.99938 -0.51191,1.9765 -1.81121,1.9765 -0.74865,0 -1.21797,-0.17088 -1.2111,-0.44097 z m 2.22494,-3.28425 c -0.2209,-0.57567 1.544,-2.72847 2.00385,-2.44426 0.32096,0.19836 0.008,1.9742 -0.44999,2.55351 -0.48206,0.60975 -1.30002,0.55223 -1.55386,-0.10925 z"
         id="path62497"
         clip-path="url(#clipPath1188-8-5-3-63-74)"
         sodipodi:nodetypes="csccccscccscccccscssscccccccccccssccsssccssccccscccscccccsssssscssssscssscssscccscsccccssssssscccsscccsccccccsccccsscscccssccsccscsscsccssccccsscscssc"
         transform="translate(-117.48382,-77.01617)" />
    </g>
  </g>
</svg>
