<?xml version="1.0" encoding="UTF-8" standalone="no"?>
<!-- Created with Inkscape (http://www.inkscape.org/) -->

<svg
   width="90.514mm"
   height="94.366mm"
   version="1.1"
   viewBox="0 0 90.514 94.366"
   id="svg28"
   sodipodi:docname="logo_thin_band_darkened.svg"
   inkscape:version="1.1.1 (3bf5ae0d25, 2021-09-20)"
   xmlns:inkscape="http://www.inkscape.org/namespaces/inkscape"
   xmlns:sodipodi="http://sodipodi.sourceforge.net/DTD/sodipodi-0.dtd"
   xmlns="http://www.w3.org/2000/svg"
   xmlns:svg="http://www.w3.org/2000/svg">
  <sodipodi:namedview
     id="namedview30"
     pagecolor="#ffffff"
     bordercolor="#cccccc"
     borderopacity="1"
     inkscape:pageshadow="0"
     inkscape:pageopacity="1"
     inkscape:pagecheckerboard="0"
     inkscape:document-units="mm"
     showgrid="false"
     inkscape:zoom="1.1663806"
     inkscape:cx="-15.003679"
     inkscape:cy="224.19783"
     inkscape:window-width="1920"
     inkscape:window-height="1017"
     inkscape:window-x="-8"
     inkscape:window-y="-8"
     inkscape:window-maximized="1"
     inkscape:current-layer="svg28" />
  <defs
     id="defs16">
    <linearGradient
       id="linearGradient64470"
       x1="217.3"
       x2="214.19"
       y1="209.98"
       y2="280.16"
       gradientUnits="userSpaceOnUse">
      <stop
         stop-color="#00c4cf"
         offset="0"
         id="stop2" />
      <stop
         stop-color="#00c4cf"
         stop-opacity="0"
         offset="1"
         id="stop4" />
    </linearGradient>
    <clipPath
       id="clipPath64878">
      <rect
         x="170.49"
         y="196.64"
         width="90.788"
         height="94.305"
         fill="#00c4cf"
         opacity=".47"
         stroke-width="0"
         id="rect7" />
    </clipPath>
    <clipPath
       id="clipPath64882">
      <rect
         x="170.5"
         y="195.75"
         width="90.788"
         height="94.305"
         fill="#00c4cf"
         opacity=".47"
         stroke-width="0"
         id="rect10" />
    </clipPath>
    <clipPath
       id="clipPath65083">
      <path
         d="m313.52 6.7248-0.48888 5.443 25.39 1.2059 0.42369-4.9541 27.867 8.2133 9.3867 31.028s-3.1289 25.292-3.6504 29.464c-0.52147 4.1719-27.639 25.813-29.985 27.117-2.3467 1.3037-51.627-3.3896-51.627-3.3896l-26.335-28.682 5.2148-40.154 18.513-23.467 18.773-3.9111z"
         fill="none"
         stroke="#000"
         stroke-width=".27331px"
         id="path13" />
    </clipPath>
  </defs>
  <g
     id="g24"
     transform="translate(-98.341,-153.22)">
    <ellipse
       transform="matrix(0.96807,0,0,0.96807,-169.57,153.77)"
       cx="323.5"
       cy="52.175999"
       rx="46.228001"
       ry="44.209"
       clip-path="url(#clipPath65083)"
       fill-opacity="0"
       opacity="0.78"
       stroke="#69c18e"
       stroke-width="1.033"
       id="ellipse18"
       style="stroke:#009100;stroke-opacity:1" />
    <path
       transform="translate(-72.163,-42.531)"
       d="m 245.29,239.97 c -1.2486,-3.7688 -4.9021,-12.43 -11.783,-14.466 -1.2526,-0.27267 -7.7459,-3.3683 -7.0208,-4.0928 -0.25099,-4.2118 5.5532,-1.9562 3.791,-10.083 21.384,7.404 32.253,29.675 22.099,51.579 -0.85537,-8.6784 -3.7812,-17.523 -7.0854,-22.937 z m -39.355,-29.897 c 0.76447,5.9543 -0.17402,7.3009 -1.0026,10.472 -2.8829,2.2601 -3.518,1.1176 -7.3229,4.8484 -3.2515,0.13387 -9.9797,3.1194 -12.619,13.13 -0.46121,4.763 -5.3426,7.7273 -5.7622,23.829 -7.2353,-12.874 -5.2081,-43.536 26.707,-52.28 z"
       clip-path="url(#clipPath64882)"
       fill="url(#linearGradient64470)"
       opacity="0.54"
       id="path20"
       style="fill:url(#linearGradient64470);opacity:0.75203252" />
    <path
       transform="translate(-72.154,-43.42)"
       d="m 200.93,281.87 c 0.74398,-4.3593 1.6841,-8.1081 1.6449,-11.65 -0.0548,-4.9569 -3.8304,-12.884 -4.5136,-12.884 -1.8188,1.3221 -2.6666,3.7834 -3.4198,7.5102 -0.41462,-4.7072 -0.33889,-6.8624 2.5901,-9.408 -0.39462,-2.7805 -4.0827,-6.4496 -4.1221,-9.0457 0.69415,-5.1836 0.22193,-4.551 1.4413,-0.1766 1.0155,3.6433 2.5825,6.6618 4.8576,9.9257 5.31,8.9232 4.6801,12.046 3.7216,17.967 z m 31.03,-26.629 c -1.3748,-2.6173 -3.1831,-5.973 -1.8244,-9.1349 -0.0179,5.0842 6.1442,10.117 6.6964,12.055 l -3.364,-1.1396 c -6.1758,13.306 -0.21702,19.157 0.025,26.371 -8.0662,-16.541 -3.8965,-22.718 -1.533,-28.151 z m -19.615,22.595 c 0.31067,-1.8775 0.4034,-2.0285 1.2459,-2.0285 0.89299,0 0.87511,0.8434 -0.0496,2.3396 -1.019,1.6488 -1.4999,1.5238 -1.1963,-0.31114 z m 29.336,-35.194 c -4.1129,-12.293 -6.7276,-14.56 -15.891,-13.557 0.47071,-0.89271 0.98354,-1.1599 1.8737,-1.8021 -3.2264,-2.2674 -11.015,-4.0903 -10.184,-9.7412 3.3032,5.7902 8.038,5.7003 12.288,9.5211 6.7918,0.47219 11.195,8.3262 13.741,14.55 10.639,17.658 5.975,33.076 0.9419,36.134 5.8596,-7.6515 4.5091,-24.478 -2.77,-35.105 z m -59.34,25.026 c 0,0 -3.1263,-5.4386 1.8304,-21.732 2.9786,-3.3626 2.4498,-16.456 14.053,-18.967 0.77612,-0.13883 1.808,-0.61631 2.2931,-1.0611 0.7798,-0.71502 3.409,-2.5496 5.0818,-3.5458 1.31,-0.7802 2.6174,-3.5468 1.7621,-10.231 -0.0474,-3.922 -0.46453,-5.648 1.1338,-9.0211 2.3962,-5.0569 7.2091,-7.5336 13.445,-5.8257 3.2489,0.88984 7.9431,4.5577 7.3442,10.026 l -0.42583,3.8883 c -0.26172,2.3898 1.311,3.4635 -0.0539,4.8022 -1.973,0.92321 -2.184,1.0806 -4.3509,4.8014 -0.67332,0.36035 -0.72894,0.33176 -0.49009,-0.25192 0.14819,-0.36212 0.46686,-1.3801 0.70815,-2.2622 0.67286,-2.4598 1.155,-3.1587 2.1787,-3.1587 0.82821,0 0.88135,-0.085 0.60627,-0.97013 -0.16582,-0.53358 -0.3021,-2.9801 -0.30282,-5.4367 -10e-4,-4.4041 -0.0163,-4.4879 -1.0728,-5.992 -3.361,-4.7851 -10.074,-5.1624 -14.373,-0.80792 -2.0838,2.1108 -2.685,4.4299 -2.2967,11.669 -0.40263,6.6969 -0.0505,8.3114 -4.2614,11.657 -2.98,1.4832 -5.7764,4.4214 -6.7503,7.0926 -0.85793,4.8598 -1.2111,2.1195 -1.346,-0.10214 0.0803,-1.2612 1.1028,-3.1855 1.1028,-3.1855 -1.9486,0.13625 -3.3996,1.465 -4.902,3.0552 -3.5292,3.204 -4.478,8.5466 -7.8392,16.695 -2.3102,8.2844 -2.4567,10.947 -1.0051,21.56 -2.0692,-2.6955 0,0 -2.0692,-2.6955 z m 30.905,6.9385 c -0.23419,-0.28217 -0.31224,-0.88957 -0.18134,-1.4111 0.1914,-0.76263 0.43166,-0.91569 1.4374,-0.91569 1.4626,0 1.8448,0.71422 1.0397,1.943 -0.63797,0.97367 -1.6638,1.1452 -2.2957,0.3838 z m 0.76574,-3.2813 c -0.63918,-0.12311 -0.79375,-0.38854 -0.79375,-1.3631 v -1.2102 h 1.7639 c 1.6967,0 1.7639,0.0376 1.7639,0.98777 0,1.6182 -0.63932,1.9889 -2.734,1.5855 z m -1.011,-4.1402 c -0.50637,-1.3196 -0.007,-1.7816 2.0437,-1.8894 1.7062,-0.0897 2.027,-0.007 2.2094,0.56766 0.43435,1.3685 -0.10671,1.8303 -2.1444,1.8303 -1.3411,0 -1.972,-0.15215 -2.1088,-0.50856 z m -0.63719,-3.9174 c -0.32821,-1.3077 -0.009,-1.5713 1.9048,-1.5713 2.3525,0 2.8303,0.24455 2.8303,1.4489 0,1.0192 -0.003,1.0206 -2.2548,1.0206 -2.1218,0 -2.2681,-0.053 -2.4802,-0.89816 z m -7.435,-42.725 c -230.91,-131.44 -115.45,-65.718 0,0 z m 6.8476,40.078 c -0.17125,-0.10666 -0.41296,-0.70197 -0.53715,-1.3229 l -0.2258,-1.129 h 2.3172 c 1.9946,0 2.3936,0.10916 2.8663,0.78405 0.9574,1.3669 0.70159,1.6174 -1.78,1.7435 -1.281,0.0651 -2.4693,0.031 -2.6405,-0.0756 z m -1.502,-3.8026 c -0.32112,-0.35483 -0.58385,-0.98983 -0.58385,-1.4111 0,-0.71822 0.16542,-0.76598 2.6534,-0.76598 2.4694,0 2.6806,0.0596 3.045,0.85945 0.70172,1.5401 0.21049,1.9628 -2.2812,1.9628 -1.7312,0 -2.384,-0.14864 -2.8333,-0.64514 z m -1.4665,-3.3921 c -0.26245,-0.20482 -0.5284,-0.76927 -0.591,-1.2543 -0.11138,-0.86315 -0.0586,-0.88417 2.4765,-0.98625 1.4904,-0.06 2.7845,0.0569 3.0477,0.27535 0.48192,0.39996 0.94416,2.1146 0.57488,2.1324 -3.7161,0.17942 -5.1185,0.13685 -5.5081,-0.16719 z m -1.51,-3.4592 c -0.19935,-0.24254 -0.41723,-0.75847 -0.48417,-1.1465 -0.11242,-0.65167 0.0998,-0.71336 2.7784,-0.80785 2.8307,-0.0999 2.9054,-0.0813 3.12,0.7737 0.12092,0.4818 0.11617,1.0438 -0.0105,1.2488 -0.33095,0.53549 -4.9555,0.47717 -5.4037,-0.0681 z m -1.5026,-3.8199 c -0.73167,-1.3672 -0.20847,-1.7363 2.4607,-1.7363 2.138,0 2.5206,0.0981 2.8605,0.73312 0.73167,1.3671 0.20847,1.7363 -2.4607,1.7363 -2.138,0 -2.5206,-0.0981 -2.8605,-0.73312 z m -0.9081,-3.3032 c -0.10733,-0.27971 -0.13986,-0.79565 -0.0723,-1.1465 0.1034,-0.53688 0.48378,-0.63797 2.4007,-0.63797 2.0634,0 2.3183,0.0812 2.7077,0.86225 0.23643,0.47424 0.35082,0.99017 0.25419,1.1465 -0.0966,0.15635 -1.2826,0.28428 -2.6354,0.28428 -1.8167,0 -2.5107,-0.13296 -2.6549,-0.50856 z m 1.3638,-2.9513 c -1.3939,-0.10085 -1.4993,-0.18032 -1.4993,-1.1305 0,-0.87803 0.16159,-1.0495 1.1465,-1.2165 0.63059,-0.10695 1.464,-0.12629 1.8521,-0.043 0.38805,0.0833 0.90399,0.16364 1.1465,0.17848 0.24458,0.015 0.44098,0.48002 0.44098,1.0442 0,1.1473 -0.54034,1.3516 -3.0868,1.1674 z m -1.082,-4.3715 c 0.11175,-1.1632 0.11468,-1.1648 2.0522,-1.1648 1.9207,0 1.9403,0.0107 1.9403,1.0583 0,1.0424 -0.0308,1.0599 -2.0522,1.1648 l -2.0522,0.1065 z m 1.0218,-2.7276 c -0.42673,-0.27009 -0.41241,-0.45289 0.0963,-1.2293 0.47818,-0.7298 0.88016,-0.91205 2.0116,-0.91205 1.5765,0 2.0338,0.5645 1.4067,1.7363 -0.29021,0.54226 -0.73354,0.73171 -1.7029,0.72772 -0.72078,-0.003 -1.5361,-0.14817 -1.8118,-0.32267 z m 1.7472,-3.6405 c 0.0325,-1.276 2.6179,-2.5895 3.0223,-1.5355 0.3835,0.99938 -0.51191,1.9765 -1.8112,1.9765 -0.74865,0 -1.218,-0.17088 -1.2111,-0.44097 z m 2.2249,-3.2842 c -0.2209,-0.57567 1.544,-2.7285 2.0038,-2.4443 0.32096,0.19836 0.008,1.9742 -0.44999,2.5535 -0.48206,0.60975 -1.3,0.55223 -1.5539,-0.10925 z"
       clip-path="url(#clipPath64878)"
       opacity="0.54"
       id="path22"
       style="opacity:0.75" />
  </g>
</svg>
